<?xml version="1.0" encoding="UTF-8"?>
<svg width="1024" height="1024" viewBox="0 0 1024 1024" xmlns="http://www.w3.org/2000/svg">
  <defs>
    <linearGradient id="bgGradient" x1="0" y1="0" x2="1" y2="1">
      <stop offset="0%" stop-color="#086ce5"/>
      <stop offset="100%" stop-color="#4da3ff"/>
    </linearGradient>
    <filter id="shadow" x="-10%" y="-10%" width="120%" height="120%">
      <feDropShadow dx="0" dy="8" stdDeviation="16" flood-color="rgba(0,0,0,0.25)" />
    </filter>
  </defs>

  <!-- Fondo redondeado -->
  <rect x="0" y="0" width="1024" height="1024" rx="180" fill="url(#bgGradient)" />

  <!-- Casa -->
  <g transform="translate(160, 240)" filter="url(#shadow)">
    <!-- Techo -->
    <path d="M352 40 L0 312 L64 312 L352 88 L640 312 L704 312 L352 40 Z" fill="#ffffff"/>
    <!-- Cuerpo -->
    <rect x="96" y="312" width="512" height="360" rx="36" fill="#ffffff"/>
    <!-- Puerta -->
    <rect x="320" y="468" width="96" height="204" rx="18" fill="#086ce5" opacity="0.9"/>
    <!-- Ventanas -->
    <rect x="160" y="380" width="120" height="100" rx="16" fill="#dff0ff"/>
    <rect x="520" y="380" width="120" height="100" rx="16" fill="#dff0ff"/>
  </g>

  <!-- Señal Wi‑Fi sobre el techo -->
  <g transform="translate(352, 140)">
    <circle cx="160" cy="60" r="14" fill="#ffffff"/>
    <path d="M60 52 C120 -8, 240 -8, 300 52" stroke="#ffffff" stroke-width="20" fill="none" stroke-linecap="round" opacity="0.9"/>
    <path d="M92 92 C144 40, 176 40, 228 92" stroke="#ffffff" stroke-width="20" fill="none" stroke-linecap="round" opacity="0.9"/>
  </g>

  <!-- Nodo central (hub) con ondas dentro de la casa -->
  <g transform="translate(160, 240)">
    <circle cx="352" cy="492" r="36" fill="#086ce5"/>
    <path d="M304 492 C304 464, 320 448, 352 448 C384 448, 400 464, 400 492" stroke="#086ce5" stroke-width="12" fill="none" opacity="0.85"/>
    <path d="M280 492 C280 444, 312 412, 352 412 C392 412, 424 444, 424 492" stroke="#086ce5" stroke-width="10" fill="none" opacity="0.6"/>
  </g>

  <!-- Brillo sutil -->
  <ellipse cx="512" cy="860" rx="360" ry="40" fill="#000" opacity="0.08"/>
</svg>